# xmcd
#
# Track frame offsets: 
#        150
#        18600
#        31350
#        47587
#        55687
#        71887
#        92699
#        112949
#        129899
#        144899
#        163577
#
# Disc length: 2371 seconds
#
# Revision: 0
# Processed by: cddbd v1.5.2PL0 Copyright (c) Steve Scherf et al.
# Submitted via: ExactAudioCopy v1.0b2
#
DISCID=8909410b
DTITLE=Marissa Nadler  - Little Hells Acoustic Demos 
DYEAR=2010
DGENRE=Acoustic
TTITLE0=Mary, Come Alive 
TTITLE1=April Is Lonely For The Rosary 
TTITLE2=Heart Paper Lover 
TTITLE3=Little Hells 
TTITLE4=Ghosts And Lovers 
TTITLE5=Brittle, Crushed, And Torn 
TTITLE6=The Whole Is Wide 
TTITLE7=River Of Dirt 
TTITLE8=Loner 
TTITLE9=Mistress On A Sunny Day 
TTITLE10=Bye Bye Ocean And Sky 
EXTD=
EXTT0=
EXTT1=
EXTT2=
EXTT3=
EXTT4=
EXTT5=
EXTT6=
EXTT7=
EXTT8=
EXTT9=
EXTT10=
PLAYORDER=
